<svg width="968" height="121" viewBox="0 0 968 121" fill="none" xmlns="http://www.w3.org/2000/svg">
<path d="M202.589 94.9844C202.589 96.0915 202.146 96.7557 201.039 96.7557H156.757C154.986 96.7557 153.879 96.3129 153.436 95.4272C152.993 94.9844 152.993 94.0988 152.993 92.7703V19.7054C152.993 18.5983 153.436 18.1555 154.543 18.1555H166.499C169.82 18.1555 171.37 19.7054 171.37 22.5837V76.8289H197.718C201.039 76.8289 202.81 78.8216 202.81 82.8069V94.9844H202.589Z" fill="white"/>
<path d="M264.583 67.9725C264.583 77.9359 262.369 85.2424 257.719 90.1134C253.07 94.9844 245.763 97.4199 236.021 97.4199C226.058 97.4199 218.751 94.9844 214.323 90.1134C209.674 85.2424 207.459 77.9359 207.459 67.9725C207.459 49.3742 216.98 40.2964 236.243 40.2964C255.505 40.2964 264.583 49.5956 264.583 67.9725ZM248.863 67.9725C248.863 62.6587 247.977 58.8947 246.427 57.1235C244.656 55.1308 241.114 54.0237 235.8 54.0237C230.707 54.0237 227.165 55.1308 225.394 57.1235C223.622 59.1162 222.737 62.8801 222.737 67.9725C222.737 73.5077 223.401 77.4931 224.951 79.4858C226.722 81.9213 230.265 83.2497 235.8 83.2497C241.335 83.2497 244.878 81.9213 246.649 79.4858C248.199 77.7145 248.863 73.9506 248.863 67.9725Z" fill="white"/>
<path d="M280.082 35.204C285.617 35.204 288.495 32.3256 288.495 26.569C288.495 20.591 285.617 17.7126 280.082 17.7126C274.325 17.7126 271.447 20.591 271.447 26.569C271.447 32.3256 274.325 35.204 280.082 35.204Z" fill="white"/>
<path d="M284.51 40.9604H279.417C274.768 40.9604 272.332 43.3959 272.332 48.0455V62.2157V66.2011V98.3054C272.332 101.848 270.118 103.619 265.69 103.619C264.583 103.619 262.59 103.619 260.155 103.398C257.719 103.176 255.948 103.176 254.619 103.176C252.848 103.176 251.963 104.283 251.741 106.497C251.52 108.933 251.298 110.483 251.298 111.147C251.298 114.468 252.848 116.461 255.948 116.682C259.49 117.125 262.59 117.347 265.247 117.347C280.082 117.347 287.609 110.483 287.609 96.7555V66.4225V62.4371V44.0602C287.609 41.8461 286.502 40.9604 284.51 40.9604Z" fill="white"/>
<path d="M345.84 89.4492C345.84 92.9917 344.069 95.2058 340.305 95.87C334.77 96.9771 328.127 97.4199 320.378 97.4199C303.108 97.4199 294.473 91.4419 294.473 79.4858C294.473 71.2936 299.787 65.9798 310.193 63.3229C310.857 63.1015 314.843 62.4373 322.592 60.8874C326.799 60.2232 329.013 59.559 330.12 59.1162C330.12 59.1162 330.12 59.1162 330.12 58.8947C330.12 56.6807 329.013 55.1308 326.577 54.4666C325.249 54.0237 323.256 53.8023 320.157 53.8023C315.286 53.8023 311.079 54.0237 307.315 54.4666L301.78 55.1308C301.558 55.1308 301.558 55.1308 301.337 55.1308C299.566 55.1308 298.68 54.2452 298.237 52.2525C298.237 52.0311 298.237 50.4812 298.237 47.3815C298.237 43.6175 301.115 41.182 307.315 40.5178C308.422 40.2964 312.85 40.2964 320.821 40.2964C337.205 40.2964 345.397 47.3815 345.397 61.3302V89.4492H345.84ZM330.341 83.4711V72.6221L313.957 75.7218C311.3 76.1646 309.972 77.4931 309.972 79.4858C309.972 82.5855 313.736 84.1354 321.042 84.1354C325.028 84.1354 328.127 83.914 330.341 83.4711Z" fill="white"/>
<path d="M12.6193 76.8291C0.884613 79.0432 -3.10075 93.2134 5.5342 101.406C8.63393 104.284 13.0621 105.612 17.2689 104.727C29.0036 102.513 32.9889 88.3424 24.354 80.1503C21.2542 77.272 16.8261 76.1649 12.6193 76.8291ZM25.6824 93.2134L22.1399 94.5419L23.0255 98.3058L19.2616 97.6416L18.1545 101.406L15.2762 98.97L12.6193 101.627L11.2908 98.0844L7.52688 98.97L8.19111 95.2061L4.42716 94.0991L6.86265 91.2207L4.20575 88.5638L7.74829 87.2354L6.86265 83.4714L10.6266 84.1357L11.7337 80.3717L14.612 82.8072L17.2689 80.1503L18.5973 83.6928L22.3613 82.8072L21.6971 86.5711L25.461 87.6782L23.0255 90.5565L25.6824 93.2134Z" fill="white"/>
<path d="M113.582 54.0239C113.582 53.8025 108.047 42.2892 67.5288 30.9974C53.1372 27.012 44.0594 25.0193 38.3028 23.4695C35.6459 22.5838 30.1106 20.3698 28.3394 12.6204C27.2323 7.52804 24.1326 1.77141 17.0475 0.442952C15.9405 0.221543 15.2762 1.32859 15.7191 2.21422L20.1472 10.1849L16.8261 17.4914L8.41257 16.8272L3.98439 8.85649C3.54157 7.97086 2.21312 7.97086 1.7703 9.0779C1.7703 9.29931 1.54889 9.52072 1.54889 9.74213C0.441845 13.0633 -0.222382 18.5985 4.87002 23.9123C5.09143 24.1337 5.31284 24.3551 5.53425 24.3551C6.86271 25.4622 8.41257 26.5692 10.1838 27.012C20.1472 30.3332 34.3174 31.4402 66.6431 39.8537C97.419 47.6031 106.054 55.131 110.704 57.3451C110.704 57.3451 110.925 57.3451 110.925 57.5665C111.146 57.5665 111.146 57.5665 111.368 57.7879C111.368 57.7879 111.368 57.7879 111.589 57.7879C112.918 57.7879 114.025 56.6808 114.025 55.3524C114.025 54.9096 113.803 54.2453 113.582 54.0239Z" fill="white"/>
<path d="M116.46 85.9062C109.154 79.7067 98.3047 84.5777 98.0833 94.3197C98.0833 97.4194 99.4117 100.519 101.847 102.512C109.154 108.711 120.003 103.84 120.224 94.0983C120.224 90.9986 118.896 87.8988 116.46 85.9062ZM113.139 101.626L110.482 100.076L108.711 102.512L107.161 99.8549L104.504 101.405V98.5265L101.626 98.3051L103.176 95.6482L100.74 93.8769L103.397 92.327L102.069 89.6701H104.947L105.168 86.7918L107.825 88.3417L109.597 85.9062L111.146 88.5631L113.803 87.2346V90.1129L116.682 90.3343L115.132 92.9913L117.567 94.7625L114.91 96.3124L116.239 98.9693L113.36 98.7479L113.139 101.626Z" fill="white"/>
<path d="M113.582 64.2083C113.582 64.2083 109.375 57.1232 77.9351 48.0454C66.2004 44.7243 54.0229 41.6245 43.6167 39.189C41.8454 38.7462 40.0742 38.3034 38.3029 38.082L22.3615 34.5395C20.1474 34.0966 18.3761 36.0893 19.0403 38.3034L22.8043 49.3739C23.0257 50.4809 24.1327 51.3665 25.2398 51.3665L43.6167 53.1378C54.0229 54.2449 66.6433 55.5733 76.6067 57.566C96.5335 61.1085 110.704 67.7508 110.704 67.7508C111.146 67.9722 111.589 67.9722 112.253 67.9722C113.139 67.7508 113.803 67.0866 114.025 66.2009C114.025 65.3153 114.025 64.6511 113.582 64.2083Z" fill="white"/>
<path d="M113.36 75.2793C113.36 75.2793 108.489 68.637 76.8279 62.659C64.8718 60.4449 51.5873 58.6736 43.6166 58.0094L42.5095 57.788L24.7968 56.6809C23.6898 56.6809 22.5827 57.3451 22.1399 58.4522L17.4903 68.8584C16.6047 70.8511 18.376 73.2866 20.3686 73.0652L41.8453 71.7367C53.58 71.5153 66.8645 71.5153 75.9423 72.1795C95.8691 73.7294 110.482 79.0432 110.482 79.0432C110.703 79.0432 110.925 79.2646 111.146 79.2646C112.475 79.2646 113.582 78.1576 113.582 76.8291C114.025 76.3863 113.803 75.7221 113.36 75.2793Z" fill="white"/>
<path fill-rule="evenodd" clip-rule="evenodd" d="M94.5406 91.6635C94.762 90.3351 95.4263 89.0066 96.0905 87.8996C79.2634 90.3351 47.6019 87.2353 30.332 83.0286C30.9963 84.1356 31.6605 85.2427 31.8819 86.5711C33.2103 90.5565 32.5461 94.5418 30.9963 97.6416C49.5946 94.3204 76.8279 93.6562 95.2049 97.863C94.5406 96.0917 94.0978 93.8776 94.5406 91.6635Z" fill="white"/>
<path d="M431.304 89.0066C431.304 92.5491 429.533 94.7632 425.769 95.4275C418.905 96.7559 412.484 97.4201 406.727 97.4201C396.321 97.4201 388.793 95.2061 384.365 90.5565C379.937 85.9069 377.501 78.379 377.501 67.9727C377.501 49.153 387.022 39.8538 405.842 39.8538C410.049 39.8538 413.37 39.8538 416.027 40.0752V21.0341C416.027 19.0414 417.134 17.9343 419.348 17.9343H424.44C429.09 17.9343 431.304 20.3698 431.304 25.0194V89.0066ZM416.027 54.6882C414.477 54.024 411.377 53.8026 406.727 53.8026C401.414 53.8026 397.65 54.6882 395.878 56.6809C394.107 58.6736 393 62.4375 393 67.7513C393 74.615 393.886 78.8218 395.878 80.8145C397.428 82.3643 401.414 83.25 407.17 83.25C410.491 83.25 413.37 83.0286 415.805 82.8072V54.6882H416.027Z" fill="white"/>
<path d="M495.734 67.9728C495.734 77.9362 493.52 85.2427 488.87 90.1137C484.221 94.9847 476.914 97.4202 467.172 97.4202C457.209 97.4202 449.902 94.9847 445.474 90.1137C440.824 85.2427 438.61 77.9362 438.61 67.9728C438.61 49.3744 448.131 40.2966 467.394 40.2966C486.656 40.2966 495.734 49.5958 495.734 67.9728ZM480.014 67.9728C480.014 62.6589 479.128 58.895 477.578 57.1237C475.807 55.131 472.265 54.024 466.951 54.024C461.858 54.024 458.316 55.131 456.544 57.1237C454.773 59.1164 453.888 62.8803 453.888 67.9728C453.888 73.508 454.552 77.4933 456.102 79.486C457.873 81.9215 461.415 83.25 466.951 83.25C472.486 83.25 476.028 81.9215 477.8 79.486C479.35 77.7148 480.014 73.9508 480.014 67.9728Z" fill="white"/>
<path d="M768.731 89.4485C768.731 92.991 766.96 95.2051 763.196 95.8693C757.661 96.9764 751.018 97.4192 743.269 97.4192C725.999 97.4192 717.364 91.4411 717.364 79.485C717.364 71.2929 722.678 65.9791 733.084 63.3222C733.749 63.1008 737.734 62.4366 745.483 60.8867C749.69 60.2225 751.904 59.5582 753.011 59.1154C753.011 59.1154 753.011 59.1154 753.011 58.894C753.011 56.6799 751.904 55.1301 749.469 54.4658C748.14 54.023 746.147 53.8016 743.048 53.8016C738.177 53.8016 733.97 54.023 730.206 54.4658L724.671 55.1301C724.449 55.1301 724.449 55.1301 724.228 55.1301C722.457 55.1301 721.571 54.2444 721.128 52.2517C721.128 52.0303 721.128 50.4805 721.128 47.3807C721.128 43.6168 724.007 41.1813 730.206 40.5171C731.313 40.2957 735.741 40.2957 743.712 40.2957C760.096 40.2957 768.288 47.3807 768.288 61.3295V89.4485H768.731ZM753.233 83.4704V72.6214L736.848 75.7211C734.191 76.1639 732.863 77.4924 732.863 79.485C732.863 82.5848 736.627 84.1346 743.933 84.1346C747.919 84.1346 751.018 83.9132 753.233 83.4704Z" fill="white"/>
<path d="M563.042 45.3889C571.234 33.6542 577.434 24.5764 581.198 18.5984H594.704C598.025 18.5984 599.796 20.1483 599.796 23.248V90.9991C599.796 94.7631 598.025 96.7558 594.704 96.7558H583.412C582.969 96.7558 582.526 96.5343 582.526 96.0915V47.3816L568.356 67.9726C567.913 68.4154 567.249 68.6368 566.363 68.6368H558.614C557.95 68.6368 557.286 68.4154 557.064 67.9726L542.451 46.9387V90.9991C542.451 94.7631 540.68 96.7558 537.359 96.7558H526.067C525.624 96.7558 525.403 96.5343 525.403 96.0915V24.5764C525.403 20.8125 526.731 18.8198 529.61 18.5984H529.831H544.444" fill="white"/>
<path d="M660.905 57.5665C660.905 62.8803 659.355 66.6442 656.477 69.3012C654.484 71.0724 652.27 72.4009 650.278 73.0651C648.728 73.5079 646.071 74.1722 642.307 74.8364L624.594 77.9361C625.48 80.3716 627.251 81.9215 629.908 82.5857C631.458 83.0285 633.893 83.2499 637.436 83.2499C640.757 83.2499 644.078 83.0285 647.621 82.8071L654.263 82.3643C656.034 82.1429 657.141 83.2499 657.584 85.464L657.806 90.335C658.027 93.8776 656.034 95.8702 652.27 96.5345C649.171 96.9773 643.635 97.1987 635.886 97.1987C626.144 97.1987 619.059 94.7632 614.631 89.8922C610.203 85.0212 607.767 77.7147 607.767 67.9727C607.767 58.2307 609.981 51.1456 614.409 46.7174C618.838 42.2893 625.701 39.8538 635.443 39.8538C652.27 40.2966 660.905 46.0532 660.905 57.5665ZM645.407 57.7879C645.407 54.9096 642.307 53.5811 636.107 53.5811C631.236 53.5811 627.915 54.4668 626.144 56.0166C624.373 57.5665 623.487 60.8876 623.266 65.5372L637.215 62.8803C640.536 62.2161 642.528 61.7732 643.414 61.3304C644.742 60.8876 645.407 59.5592 645.407 57.7879Z" fill="white"/>
<path d="M711.386 90.7772C711.608 94.3197 709.615 96.3124 706.073 96.9766C703.637 97.4194 699.209 97.6409 693.231 97.6409C675.075 97.6409 665.776 87.8989 665.776 68.1935C665.776 49.8165 674.854 40.5173 693.009 40.5173C699.209 40.5173 702.973 40.5173 704.301 40.7387C708.951 41.6244 711.386 43.6171 711.386 47.1596V51.8092C711.386 53.8019 710.279 54.9089 708.287 54.9089C706.737 54.9089 704.523 54.9089 701.644 54.6875C698.766 54.4661 696.552 54.4661 695.002 54.4661C689.688 54.4661 686.146 55.3517 684.153 57.3444C682.16 59.3371 681.275 62.8796 681.275 68.1935C681.275 73.9501 682.16 77.9355 683.71 79.9281C685.703 82.3636 689.467 83.6921 695.002 83.6921C697.216 83.6921 700.094 83.4707 703.194 83.2493L707.844 83.0279C709.615 82.8065 710.722 83.9135 711.165 86.1276L711.386 90.7772Z" fill="white"/>
<path d="M829.619 93.4338C829.619 95.6479 828.512 96.7549 826.298 96.7549H817.441C815.227 96.7549 814.12 95.6479 814.12 93.4338V62.2151C814.12 58.6726 813.234 56.4585 811.685 55.3515C810.356 54.4658 807.921 54.023 804.378 54.023C799.064 54.023 795.3 54.2444 793.086 54.6872V93.4338C793.086 95.6479 791.979 96.7549 789.765 96.7549H780.909C778.695 96.7549 777.588 95.6479 777.588 93.4338V48.4878C777.588 44.9452 779.359 42.7312 783.123 42.0669C789.322 40.7385 796.629 40.2957 805.042 40.2957C821.427 40.2957 829.397 47.1593 829.397 60.4439V93.4338H829.619Z" fill="white"/>
<path d="M856.409 26.3478C856.409 32.1044 853.531 34.9828 847.774 34.9828C842.018 34.9828 838.918 32.1044 838.918 26.3478C838.918 20.3698 841.796 17.4915 847.774 17.4915C853.531 17.4915 856.409 20.3698 856.409 26.3478ZM855.524 93.4347C855.524 95.6488 854.417 96.7559 852.203 96.7559H843.346C841.132 96.7559 840.025 95.6488 840.025 93.4347V48.0459C840.025 43.1749 842.46 40.7394 847.11 40.7394H852.203C854.417 40.7394 855.524 41.8464 855.524 44.0605V93.4347Z" fill="white"/>
<path d="M907.112 90.7772C907.333 94.3197 905.34 96.3124 901.798 96.9766C899.362 97.4194 894.934 97.6409 888.956 97.6409C870.801 97.6409 861.501 87.8989 861.501 68.1935C861.501 49.8165 870.579 40.5173 888.735 40.5173C894.934 40.5173 898.698 40.5173 900.027 40.7387C904.676 41.6244 907.112 43.6171 907.112 47.1596V51.8092C907.112 53.8019 906.005 54.9089 904.012 54.9089C902.462 54.9089 900.248 54.9089 897.37 54.6875C894.491 54.4661 892.277 54.4661 890.727 54.4661C885.414 54.4661 881.871 55.3517 879.878 57.3444C877.886 59.3371 877 62.8796 877 68.1935C877 73.9501 877.886 77.9355 879.436 79.9281C881.428 82.3636 885.192 83.6921 890.727 83.6921C892.942 83.6921 895.82 83.4707 898.92 83.2493L903.569 83.0279C905.34 82.8065 906.447 83.9135 906.89 86.1276L907.112 90.7772Z" fill="white"/>
<path d="M967.999 67.9718C967.999 77.9352 965.785 85.2417 961.136 90.1127C956.486 94.9837 949.18 97.4192 939.438 97.4192C929.474 97.4192 922.168 94.9837 917.739 90.1127C913.09 85.2417 910.876 77.9352 910.876 67.9718C910.876 49.3734 920.396 40.2957 939.659 40.2957C958.479 40.2957 967.999 49.5948 967.999 67.9718ZM952.279 67.9718C952.279 62.658 951.394 58.894 949.844 57.1227C948.073 55.1301 944.53 54.023 939.216 54.023C934.124 54.023 930.581 55.1301 928.81 57.1227C927.039 59.1154 926.153 62.8794 926.153 67.9718C926.153 73.507 926.817 77.4924 928.367 79.485C930.138 81.9205 933.681 83.249 939.216 83.249C944.751 83.249 948.294 81.9205 950.065 79.485C951.615 77.7138 952.279 73.9498 952.279 67.9718Z" fill="white"/>
</svg>
